<svg width="256" height="86" viewBox="0 0 256 86" fill="none" xmlns="http://www.w3.org/2000/svg">
<g clip-path="url(#clip0_10848_5735)">
<path d="M96.9571 24.0535C97.2767 23.9363 97.5217 23.7729 97.6886 23.5634C97.8555 23.3539 97.9407 23.116 97.9443 22.8497C97.9372 22.5975 97.8591 22.3774 97.6993 22.1892C97.5466 22.0045 97.2945 21.8376 96.9465 21.6849L96.9109 24.0641C96.9109 24.0641 96.9429 24.057 96.9571 24.0535Z" fill="white"/>
<path d="M94.0204 15.3108C93.8819 15.499 93.8109 15.7121 93.8038 15.9536C93.7931 16.1524 93.8286 16.33 93.9103 16.4862C93.992 16.6425 94.1269 16.7845 94.308 16.9124C94.4252 16.994 94.5744 17.0686 94.7377 17.1432L94.7732 14.8421C94.7413 14.8528 94.6951 14.8563 94.6631 14.8705C94.3719 14.9806 94.1553 15.1297 94.0168 15.3144L94.0204 15.3108Z" fill="white"/>
<path d="M94.5708 27.8176C93.6582 27.7288 92.8272 27.5441 92.0922 27.2494C91.0304 26.8268 90.2066 26.177 89.6207 25.2963C89.0348 24.4157 88.74 23.29 88.7329 21.9158H92.9657C92.9941 22.42 93.1184 22.839 93.3421 23.1835C93.5659 23.5244 93.8819 23.7836 94.2938 23.9611C94.4004 24.0073 94.5104 24.0464 94.6276 24.0783L94.6738 21.0706L93.8322 20.8895C92.3763 20.5735 91.2328 20.0479 90.3948 19.3058C89.5568 18.5672 89.1413 17.5551 89.1484 16.2696C89.1413 15.2256 89.4218 14.313 89.9864 13.5318C90.551 12.747 91.3323 12.1362 92.3372 11.6995C93.0865 11.3728 93.9174 11.1668 94.83 11.0852L94.8584 9.3558C89.7059 9.81034 85.6613 14.1319 85.6613 19.4016C85.6613 24.6714 89.5426 28.8154 94.5459 29.4155L94.5708 27.814V27.8176Z" fill="white"/>
<path d="M97.1382 9.41972L97.1098 11.1349C97.891 11.2343 98.6048 11.4189 99.2333 11.7101C100.199 12.154 100.948 12.779 101.474 13.5815C102 14.3876 102.266 15.3251 102.273 16.401H98.0082C97.9656 15.8648 97.7667 15.4494 97.4116 15.1511C97.3087 15.0658 97.1879 14.9948 97.053 14.9345L97.0104 17.7398L97.369 17.8179C98.2781 18.0096 99.0557 18.2653 99.702 18.5814C100.348 18.8974 100.877 19.2667 101.289 19.6928C101.701 20.1189 102.003 20.5948 102.198 21.1239C102.394 21.653 102.493 22.2318 102.5 22.8568C102.497 23.9363 102.223 24.8525 101.691 25.5982C101.154 26.3474 100.394 26.9156 99.4002 27.3062C98.6616 27.5974 97.8129 27.7785 96.8506 27.8531L96.8257 29.4475C101.897 28.9148 105.849 24.6252 105.849 19.4123C105.849 14.1994 102.056 10.1015 97.1382 9.42682V9.41972Z" fill="white"/>
<path d="M137.716 65.6431V23.9576H155.709C158.802 23.9576 161.511 24.5684 163.83 25.7899C166.149 27.0115 167.956 28.7266 169.245 30.9389C170.534 33.1512 171.181 35.7364 171.181 38.6944C171.181 41.6524 170.52 44.2659 169.196 46.4498C167.871 48.6337 166.021 50.3168 163.638 51.4993C161.255 52.6783 158.479 53.2713 155.304 53.2713H144.559V44.479H153.024C154.352 44.479 155.489 44.2446 156.433 43.7759C157.374 43.3071 158.102 42.6395 158.61 41.7695C159.118 40.9031 159.373 39.8768 159.373 38.6944C159.373 37.5119 159.118 36.4785 158.61 35.6298C158.102 34.7811 157.374 34.1313 156.433 33.6768C155.489 33.2222 154.352 32.995 153.024 32.995H149.036V65.6431H137.719H137.716Z" fill="white"/>
<path d="M180.687 66.1331C178.691 66.1331 176.933 65.8028 175.406 65.1459C173.879 64.489 172.683 63.4876 171.813 62.1453C170.943 60.803 170.509 59.0914 170.509 57.0176C170.509 55.3096 170.801 53.8465 171.387 52.6321C171.969 51.4176 172.786 50.4234 173.83 49.6492C174.874 48.8751 176.092 48.2856 177.484 47.8773C178.876 47.4689 180.378 47.2061 181.993 47.0818C183.744 46.9469 185.15 46.78 186.216 46.5847C187.281 46.3894 188.051 46.1089 188.524 45.7502C189 45.3916 189.237 44.9122 189.237 44.3156V44.2339C189.237 43.4207 188.925 42.7958 188.3 42.3625C187.675 41.9293 186.876 41.7127 185.9 41.7127C184.827 41.7127 183.957 41.9471 183.286 42.4158C182.615 42.8845 182.21 43.5983 182.075 44.5642H171.734C171.869 42.6644 172.477 40.9102 173.556 39.3016C174.636 37.6929 176.212 36.4039 178.29 35.4345C180.367 34.4651 182.956 33.9786 186.066 33.9786C188.304 33.9786 190.313 34.2413 192.093 34.7633C193.872 35.2853 195.384 36.0133 196.631 36.9401C197.877 37.8705 198.832 38.9536 199.489 40.1964C200.146 41.4393 200.476 42.7851 200.476 44.2375V65.6501H189.973V61.254H189.728C189.103 62.4223 188.346 63.3633 187.458 64.0841C186.571 64.805 185.559 65.327 184.426 65.6501C183.293 65.9768 182.047 66.1402 180.69 66.1402L180.687 66.1331ZM184.351 59.0488C185.207 59.0488 186.01 58.8712 186.762 58.5197C187.515 58.1681 188.13 57.6568 188.605 56.9927C189.081 56.3287 189.319 55.5191 189.319 54.5709V51.9645C189.021 52.0852 188.705 52.2024 188.375 52.309C188.041 52.419 187.689 52.5185 187.316 52.6143C186.944 52.7102 186.549 52.799 186.137 52.8771C185.722 52.9588 185.292 53.0334 184.845 53.1008C183.975 53.2358 183.268 53.4559 182.718 53.7613C182.167 54.0667 181.763 54.4396 181.496 54.8799C181.23 55.3202 181.099 55.8138 181.099 56.3571C181.099 57.2271 181.404 57.8912 182.015 58.3528C182.625 58.8144 183.407 59.0452 184.355 59.0452L184.351 59.0488Z" fill="white"/>
<path d="M234.325 34.6036L222.468 68.4626C221.9 70.1706 221.072 71.7118 219.996 73.0825C218.921 74.4532 217.504 75.5398 215.753 76.3387C214.002 77.1377 211.818 77.539 209.198 77.539C207.909 77.539 206.68 77.4396 205.515 77.2443C204.347 77.049 203.324 76.7791 202.44 76.4417L204.883 68.4626C206.268 68.9526 207.447 69.1657 208.424 69.1053C209.4 69.0449 210.121 68.6153 210.583 67.8127L210.828 67.2446L199.837 34.5965H211.563L216.609 56.2542H216.935L223.867 34.6071H234.325V34.6036Z" fill="white"/>
<path d="M14.9427 65.5756V23.8902H23.7564V58.3067H41.6286V65.5721H14.9427V65.5756Z" fill="white"/>
<path d="M52.5515 66.1651C50.5559 66.1651 48.7804 65.8171 47.2179 65.1175C45.659 64.418 44.4268 63.3811 43.5248 62.0033C42.6229 60.6255 42.1719 58.9068 42.1719 56.8436C42.1719 55.1072 42.4915 53.6477 43.1271 52.4688C43.7663 51.2899 44.6328 50.3382 45.7336 49.6209C46.8344 48.9 48.0844 48.3603 49.487 47.9909C50.8932 47.6252 52.3669 47.366 53.9151 47.2168C55.7333 47.0286 57.1998 46.8475 58.3113 46.6771C59.4228 46.5066 60.2324 46.2545 60.7331 45.9136C61.2338 45.5762 61.4859 45.072 61.4859 44.408V44.2872C61.4859 42.9982 61.0811 42.0004 60.275 41.2937C59.4689 40.5871 58.3255 40.2355 56.8447 40.2355C55.2858 40.2355 54.043 40.58 53.1197 41.2618C52.1964 41.9471 51.5857 42.8064 51.2874 43.8362L43.2692 43.1864C43.6775 41.2866 44.4765 39.6425 45.6697 38.2505C46.8628 36.8585 48.4075 35.7861 50.3002 35.0333C52.1929 34.2805 54.3874 33.904 56.8838 33.904C58.6202 33.904 60.2857 34.1064 61.8801 34.5148C63.4745 34.9232 64.8913 35.5517 66.1342 36.4075C67.3771 37.2633 68.3571 38.357 69.0744 39.6958C69.7953 41.0309 70.154 42.6289 70.154 44.4896V65.5756H61.9298V61.2398H61.6848C61.1841 62.2163 60.5094 63.0757 59.6713 63.8143C58.8333 64.5529 57.8177 65.1317 56.6388 65.5436C55.4598 65.9591 54.0962 66.1651 52.548 66.1651H52.5515ZM55.0337 60.1816C56.3085 60.1816 57.4342 59.9259 58.4107 59.4181C59.3873 58.9103 60.1543 58.2214 60.7118 57.3514C61.2693 56.485 61.5463 55.4978 61.5463 54.4005V51.0839C61.2764 51.2614 60.9035 51.4212 60.4384 51.5633C59.9732 51.7053 59.4441 51.8367 58.8617 51.9503C58.2793 52.0675 57.6934 52.167 57.1111 52.2557C56.5287 52.3445 55.9996 52.4226 55.5237 52.4901C54.5046 52.6392 53.6169 52.8771 52.8569 53.2038C52.097 53.5305 51.5075 53.9673 51.085 54.5177C50.6659 55.0681 50.4529 55.7499 50.4529 56.5631C50.4529 57.7421 50.8826 58.644 51.7455 59.2583C52.6084 59.8762 53.7021 60.1852 55.0337 60.1852V60.1816Z" fill="white"/>
<path d="M89.855 34.3124V40.825H71.0275V34.3124H89.855ZM75.303 26.8233H83.9745V55.9701C83.9745 56.7726 84.0953 57.3905 84.3403 57.8344C84.5853 58.2747 84.9262 58.5836 85.3665 58.7612C85.8069 58.9387 86.3182 59.0275 86.9041 59.0275C87.3125 59.0275 87.7173 58.9884 88.1257 58.9139C88.5341 58.8393 88.8465 58.7825 89.0632 58.7399L90.4268 65.1921C89.9935 65.327 89.3828 65.4868 88.5944 65.6715C87.8061 65.8561 86.8509 65.9662 85.7252 66.0088C83.6372 66.0905 81.8084 65.8135 80.2389 65.1743C78.6693 64.5351 77.4549 63.5444 76.5849 62.2021C75.7149 60.8598 75.2888 59.1624 75.303 57.1135V26.8268V26.8233Z" fill="white"/>
<path d="M91.8223 65.5756V34.3124H100.494V65.5756H91.8223Z" fill="white"/>
<path d="M112.415 47.5009V65.5756H103.743V34.3124H112.006V39.8272H112.372C113.065 38.009 114.226 36.5673 115.852 35.502C117.482 34.4367 119.456 33.904 121.775 33.904C123.945 33.904 125.838 34.3799 127.453 35.328C129.069 36.2761 130.322 37.6326 131.217 39.3868C132.112 41.1446 132.56 43.2361 132.56 45.665V65.5721H123.888V47.2133C123.902 45.2993 123.412 43.8043 122.421 42.7248C121.431 41.6453 120.067 41.1055 118.331 41.1055C117.162 41.1055 116.136 41.3576 115.248 41.8583C114.361 42.359 113.668 43.0905 113.171 44.0458C112.674 45.001 112.422 46.1515 112.408 47.4974L112.415 47.5009Z" fill="white"/>
</g>
<defs>
<clipPath id="clip0_10848_5735">
<rect width="255.674" height="84.0571" fill="white" transform="translate(0 0.980316)"/>
</clipPath>
</defs>
</svg>
