<svg width="276" height="107" viewBox="0 0 276 107" fill="none" xmlns="http://www.w3.org/2000/svg">
<path d="M106.784 31.4484C107.142 31.3173 107.416 31.1345 107.603 30.9C107.789 30.6656 107.885 30.3993 107.889 30.1012C107.881 29.8191 107.793 29.5727 107.614 29.3621C107.444 29.1554 107.161 28.9686 106.772 28.7978L106.732 31.4604C106.732 31.4604 106.768 31.4524 106.784 31.4484Z" fill="#4D7C2F"/>
<path d="M103.497 21.6644C103.342 21.875 103.263 22.1134 103.255 22.3837C103.243 22.6062 103.283 22.8049 103.374 22.9798C103.466 23.1546 103.617 23.3136 103.819 23.4567C103.951 23.5481 104.117 23.6315 104.3 23.715L104.34 21.1398C104.304 21.1517 104.253 21.1557 104.217 21.1716C103.891 21.2948 103.648 21.4617 103.493 21.6683L103.497 21.6644Z" fill="#96CB5D"/>
<path d="M104.113 35.6609C103.092 35.5615 102.162 35.3549 101.34 35.025C100.151 34.5521 99.2293 33.8249 98.5736 32.8393C97.9179 31.8537 97.5881 30.594 97.5801 29.056H102.317C102.349 29.6203 102.488 30.0893 102.738 30.4748C102.989 30.8563 103.342 31.1464 103.803 31.3451C103.923 31.3967 104.046 31.4404 104.177 31.4762L104.229 28.1102L103.287 27.9075C101.657 27.5539 100.378 26.9657 99.4399 26.1351C98.5021 25.3085 98.0371 24.1759 98.0451 22.7373C98.0371 21.569 98.3511 20.5476 98.9829 19.6734C99.6148 18.7951 100.489 18.1116 101.614 17.6228C102.452 17.2572 103.382 17.0267 104.403 16.9353L104.435 14.9999C98.669 15.5086 94.1426 20.345 94.1426 26.2424C94.1426 32.1399 98.4862 36.7776 104.086 37.4492L104.113 35.6569V35.6609Z" fill="#96CB5D"/>
<path d="M106.987 15.0715L106.955 16.9909C107.829 17.1022 108.628 17.3088 109.331 17.6347C110.412 18.1315 111.251 18.8309 111.839 19.729C112.427 20.6311 112.725 21.6803 112.733 22.8844H107.96C107.913 22.2843 107.69 21.8194 107.293 21.4855C107.177 21.3902 107.042 21.3107 106.891 21.2431L106.844 24.3826L107.245 24.47C108.262 24.6846 109.133 24.9708 109.856 25.3244C110.579 25.6781 111.171 26.0914 111.632 26.5683C112.093 27.0452 112.431 27.5777 112.65 28.1698C112.868 28.762 112.979 29.4097 112.987 30.1092C112.983 31.3173 112.677 32.3426 112.081 33.1771C111.481 34.0156 110.631 34.6515 109.518 35.0886C108.691 35.4145 107.742 35.6172 106.665 35.7006L106.637 37.4849C112.312 36.8888 116.735 32.0882 116.735 26.2544C116.735 20.4205 112.491 15.8345 106.987 15.0794V15.0715Z" fill="#4D7C2F"/>
<path d="M152.398 77.9922V31.3412H172.534C175.996 31.3412 179.028 32.0247 181.623 33.3917C184.218 34.7588 186.241 36.6783 187.683 39.1541C189.126 41.6299 189.849 44.523 189.849 47.8333C189.849 51.1437 189.11 54.0686 187.628 56.5126C186.145 58.9566 184.075 60.8403 181.408 62.1637C178.742 63.483 175.634 64.1467 172.081 64.1467H160.056V54.307H169.53C171.016 54.307 172.288 54.0447 173.345 53.5202C174.398 52.9956 175.213 52.2485 175.781 51.2748C176.349 50.3052 176.635 49.1567 176.635 47.8333C176.635 46.51 176.349 45.3535 175.781 44.4038C175.213 43.454 174.398 42.7267 173.345 42.218C172.288 41.7094 171.016 41.455 169.53 41.455H165.067V77.9922H152.402H152.398Z" fill="#96CB5D"/>
<path d="M200.487 78.5406C198.254 78.5406 196.287 78.171 194.578 77.4358C192.869 76.7006 191.53 75.5799 190.556 74.0777C189.583 72.5756 189.098 70.6601 189.098 68.3393C189.098 66.4278 189.424 64.7905 190.079 63.4313C190.731 62.0722 191.645 60.9595 192.813 60.0932C193.982 59.2268 195.345 58.5671 196.903 58.1101C198.461 57.6531 200.142 57.359 201.95 57.2199C203.909 57.0689 205.483 56.8822 206.675 56.6636C207.867 56.445 208.729 56.1311 209.258 55.7297C209.791 55.3283 210.057 54.7918 210.057 54.1242V54.0328C210.057 53.1227 209.707 52.4233 209.008 51.9385C208.308 51.4536 207.414 51.2112 206.321 51.2112C205.121 51.2112 204.147 51.4735 203.396 51.9981C202.645 52.5227 202.192 53.3214 202.041 54.4024H190.469C190.62 52.2763 191.299 50.3131 192.507 48.5129C193.716 46.7126 195.48 45.2701 197.805 44.1852C200.13 43.1003 203.027 42.5558 206.508 42.5558C209.012 42.5558 211.261 42.8499 213.252 43.4341C215.243 44.0183 216.936 44.8329 218.331 45.8701C219.726 46.9113 220.795 48.1234 221.53 49.5143C222.265 50.9052 222.635 52.4114 222.635 54.0368V78.0001H210.879V73.0803H210.605C209.906 74.3877 209.059 75.4408 208.066 76.2476C207.072 77.0543 205.94 77.6385 204.672 78.0001C203.404 78.3657 202.009 78.5485 200.491 78.5485L200.487 78.5406ZM204.589 70.6124C205.546 70.6124 206.444 70.4137 207.287 70.0203C208.129 69.6268 208.817 69.0546 209.349 68.3114C209.882 67.5683 210.148 66.6622 210.148 65.6012V62.6842C209.814 62.8193 209.461 62.9505 209.091 63.0697C208.718 63.1929 208.324 63.3042 207.907 63.4115C207.49 63.5188 207.048 63.6181 206.587 63.7056C206.122 63.797 205.642 63.8804 205.141 63.9559C204.167 64.1069 203.376 64.3533 202.76 64.6951C202.144 65.0368 201.691 65.4541 201.393 65.9469C201.095 66.4397 200.948 66.9921 200.948 67.6001C200.948 68.5737 201.29 69.3169 201.974 69.8335C202.657 70.3501 203.531 70.6084 204.592 70.6084L204.589 70.6124Z" fill="#96CB5D"/>
<path d="M260.515 43.2553L247.246 81.1476C246.61 83.0591 245.684 84.7838 244.48 86.3178C243.276 87.8518 241.69 89.0678 239.731 89.962C237.772 90.8561 235.328 91.3052 232.395 91.3052C230.952 91.3052 229.577 91.1939 228.274 90.9753C226.966 90.7568 225.822 90.4547 224.832 90.0772L227.566 81.1476C229.116 81.696 230.436 81.9344 231.528 81.8669C232.621 81.7993 233.428 81.3185 233.945 80.4203L234.219 79.7845L221.919 43.2473H235.042L240.689 67.4849H241.054L248.812 43.2593H260.515V43.2553Z" fill="#96CB5D"/>
<path d="M14.9999 77.9167V31.2657H24.8634V69.7819H44.8647V77.9127H14.9999V77.9167Z" fill="#4D7C2F"/>
<path d="M57.0887 78.5764C54.8553 78.5764 52.8683 78.1869 51.1197 77.404C49.3751 76.6212 47.9962 75.4607 46.9868 73.9188C45.9774 72.3769 45.4727 70.4535 45.4727 68.1446C45.4727 66.2013 45.8303 64.568 46.5417 63.2486C47.257 61.9292 48.2266 60.8642 49.4586 60.0614C50.6905 59.2547 52.0894 58.6506 53.6591 58.2373C55.2329 57.828 56.8821 57.5379 58.6147 57.371C60.6494 57.1604 62.2907 56.9577 63.5346 56.7669C64.7785 56.5762 65.6845 56.294 66.2449 55.9125C66.8052 55.535 67.0874 54.9707 67.0874 54.2275V54.0924C67.0874 52.6499 66.6343 51.5332 65.7322 50.7423C64.8301 49.9515 63.5505 49.5581 61.8933 49.5581C60.1487 49.5581 58.7578 49.9435 57.7246 50.7066C56.6913 51.4735 56.0078 52.4352 55.674 53.5877L46.7006 52.8605C47.1576 50.7344 48.0518 48.8944 49.3871 47.3366C50.7223 45.7788 52.451 44.5786 54.5692 43.7361C56.6873 42.8936 59.1433 42.4724 61.937 42.4724C63.8803 42.4724 65.7441 42.6989 67.5285 43.1559C69.3128 43.6129 70.8985 44.3163 72.2894 45.2741C73.6803 46.2318 74.7771 47.4558 75.5798 48.954C76.3866 50.4482 76.7879 52.2366 76.7879 54.3189V77.9167H67.5841V73.0644H67.3099C66.7496 74.1573 65.9945 75.119 65.0566 75.9456C64.1188 76.7722 62.9822 77.4199 61.6628 77.8809C60.3434 78.3459 58.8174 78.5764 57.0847 78.5764H57.0887ZM59.8666 71.8801C61.2932 71.8801 62.553 71.594 63.6459 71.0257C64.7387 70.4574 65.5971 69.6865 66.221 68.7129C66.8449 67.7432 67.1549 66.6384 67.1549 65.4104V61.6987C66.8529 61.8974 66.4356 62.0762 65.915 62.2352C65.3944 62.3942 64.8023 62.5412 64.1506 62.6684C63.4988 62.7995 62.8431 62.9108 62.1914 63.0101C61.5396 63.1095 60.9475 63.1969 60.415 63.2724C59.2744 63.4393 58.2809 63.7056 57.4305 64.0712C56.58 64.4368 55.9204 64.9256 55.4475 65.5416C54.9785 66.1576 54.7401 66.9206 54.7401 67.8306C54.7401 69.15 55.2209 70.1594 56.1866 70.8469C57.1523 71.5384 58.3763 71.8841 59.8666 71.8841V71.8801Z" fill="#4D7C2F"/>
<path d="M98.8359 42.9294V50.2177H77.7656V42.9294H98.8359ZM82.5503 34.5482H92.2549V67.1669C92.2549 68.065 92.39 68.7565 92.6642 69.2533C92.9384 69.7461 93.3199 70.0918 93.8127 70.2905C94.3055 70.4892 94.8778 70.5885 95.5335 70.5885C95.9905 70.5885 96.4435 70.5448 96.9005 70.4614C97.3575 70.3779 97.7073 70.3143 97.9497 70.2666L99.4757 77.4874C98.9909 77.6385 98.3073 77.8173 97.4251 78.0239C96.5429 78.2306 95.4739 78.3538 94.2141 78.4015C91.8774 78.4929 89.8308 78.1829 88.0742 77.4676C86.3177 76.7523 84.9586 75.6435 83.985 74.1413C83.0113 72.6391 82.5344 70.7396 82.5503 68.4466V34.5521V34.5482Z" fill="#4D7C2F"/>
<path d="M101.037 77.9166V42.9294H110.742V77.9166H101.037Z" fill="#4D7C2F"/>
<path d="M124.083 57.6889V77.9167H114.378V42.9294H123.626V49.1011H124.035C124.81 47.0664 126.109 45.4529 127.93 44.2607C129.754 43.0685 131.963 42.4724 134.558 42.4724C136.986 42.4724 139.105 43.0049 140.913 44.066C142.721 45.127 144.124 46.6451 145.125 48.6083C146.127 50.5754 146.627 52.9161 146.627 55.6343V77.9127H136.923V57.367C136.939 55.225 136.39 53.552 135.282 52.3439C134.173 51.1358 132.647 50.5317 130.703 50.5317C129.396 50.5317 128.248 50.8139 127.254 51.3742C126.26 51.9345 125.486 52.7532 124.929 53.8222C124.373 54.8912 124.091 56.1788 124.075 57.6849L124.083 57.6889Z" fill="#4D7C2F"/>
</svg>
