<svg width="123" height="35" viewBox="0 0 123 35" fill="none" xmlns="http://www.w3.org/2000/svg">
<g clip-path="url(#clip0_168_993)">
<path d="M43.3318 22.0077H47.4125V23.9827H40.8476V11.5626H43.3318V22.0077Z" fill="#0D1E34"/>
<path d="M57.1705 19.8016H49.985C50.0446 20.5125 50.2924 21.0713 50.7305 21.474C51.1685 21.8767 51.7065 22.079 52.3443 22.079C53.2665 22.079 53.9236 21.6821 54.3136 20.8863H56.9937C56.7094 21.8362 56.1657 22.6147 55.3607 23.2274C54.5557 23.8382 53.5682 24.1445 52.3981 24.1445C51.4509 24.1445 50.6037 23.9345 49.8525 23.5125C49.1013 23.0906 48.5153 22.4952 48.0964 21.7245C47.6757 20.9538 47.4663 20.0636 47.4663 19.0559C47.4663 18.0366 47.6738 17.1407 48.0868 16.368C48.4999 15.5973 49.0801 15.0039 49.8256 14.5877C50.571 14.1734 51.4279 13.9653 52.3981 13.9653C53.3318 13.9653 54.1695 14.1676 54.9092 14.5703C55.6489 14.973 56.2214 15.5472 56.6306 16.2871C57.0379 17.0289 57.2435 17.8806 57.2435 18.8401C57.2416 19.1965 57.2185 19.5164 57.1705 19.8016ZM54.669 18.1291C54.6575 17.4875 54.4269 16.975 53.9774 16.5896C53.5278 16.2043 52.9783 16.0116 52.327 16.0116C51.7122 16.0116 51.1935 16.1985 50.7747 16.5723C50.3539 16.9461 50.0965 17.4644 50.0023 18.1291H54.669Z" fill="#0D1E34"/>
<path d="M63.9486 14.4008C64.5039 14.6917 64.9419 15.0674 65.2608 15.5299V14.1233H67.7623V24.0539C67.7623 24.9672 67.5779 25.7823 67.2128 26.501C66.8459 27.2177 66.2964 27.7881 65.5625 28.21C64.8286 28.632 63.9409 28.842 62.9015 28.842C61.5048 28.842 60.3617 28.5164 59.4683 27.8632C58.5749 27.21 58.0696 26.3218 57.9505 25.1946H60.4174C60.548 25.6455 60.8285 26.0039 61.2608 26.2717C61.6931 26.5395 62.2157 26.6724 62.8305 26.6724C63.5509 26.6724 64.1369 26.4566 64.5865 26.0231C65.0361 25.5896 65.2608 24.9345 65.2608 24.0559V22.526C64.9419 22.9884 64.5 23.3738 63.939 23.6821C63.378 23.9904 62.7344 24.1445 62.0139 24.1445C61.1859 24.1445 60.4289 23.9306 59.743 23.5048C59.0571 23.0771 58.5153 22.4759 58.1196 21.6994C57.7238 20.9229 57.5259 20.0289 57.5259 19.0212C57.5259 18.025 57.7238 17.1407 58.1196 16.3699C58.5153 15.5992 59.0533 15.0058 59.7334 14.5896C60.4135 14.1753 61.1743 13.9672 62.0139 13.9672C62.7478 13.9653 63.3934 14.1098 63.9486 14.4008ZM64.9073 17.4971C64.671 17.0636 64.3521 16.7322 63.9486 16.501C63.5471 16.2697 63.1148 16.1541 62.6537 16.1541C62.1926 16.1541 61.7661 16.2678 61.3761 16.4913C60.9861 16.7168 60.6691 17.0462 60.427 17.4798C60.1849 17.9133 60.0639 18.4258 60.0639 19.0193C60.0639 19.6127 60.1849 20.131 60.427 20.5761C60.6691 21.0212 60.988 21.3622 61.3857 21.5992C61.7815 21.8362 62.2041 21.9557 62.6537 21.9557C63.1148 21.9557 63.5471 21.8401 63.9486 21.6089C64.3502 21.3776 64.6691 21.0462 64.9073 20.6127C65.1436 20.1792 65.2628 19.6609 65.2628 19.0559C65.2628 18.4509 65.1436 17.9306 64.9073 17.4971Z" fill="#0D1E34"/>
<path d="M69.2628 16.368C69.6586 15.5973 70.1965 15.0039 70.8766 14.5877C71.5568 14.1734 72.3176 13.9653 73.1572 13.9653C73.8911 13.9653 74.5328 14.1137 75.0822 14.4104C75.6317 14.7071 76.0736 15.0809 76.4041 15.5318V14.1253H78.9055V23.9846H76.4041V22.5434C76.0851 23.0058 75.6432 23.3892 75.0822 23.6917C74.5212 23.9942 73.8719 24.1445 73.1399 24.1445C72.3118 24.1445 71.5568 23.9306 70.8766 23.5048C70.1965 23.0771 69.6586 22.4759 69.2628 21.6994C68.867 20.9229 68.6691 20.0289 68.6691 19.0212C68.6691 18.0212 68.867 17.1387 69.2628 16.368ZM76.0505 17.4971C75.8142 17.0636 75.4953 16.7322 75.0918 16.501C74.6903 16.2698 74.258 16.1542 73.7969 16.1542C73.3358 16.1542 72.9093 16.2678 72.5193 16.4913C72.1293 16.7168 71.8123 17.0463 71.5702 17.4798C71.3281 17.9133 71.2071 18.4258 71.2071 19.0193C71.2071 19.6127 71.3281 20.131 71.5702 20.5761C71.8123 21.0212 72.1312 21.3622 72.5289 21.5992C72.9247 21.8362 73.3474 21.9557 73.7969 21.9557C74.258 21.9557 74.6903 21.8401 75.0918 21.6089C75.4934 21.3777 75.8123 21.0463 76.0505 20.6127C76.2869 20.1792 76.406 19.6609 76.406 19.0559C76.406 18.4509 76.2869 17.9306 76.0505 17.4971Z" fill="#0D1E34"/>
<path d="M82.9363 10.815V23.9827H80.4521V10.815H82.9363Z" fill="#0D1E34"/>
<path d="M86.3695 23.6725C85.724 23.3815 85.2187 22.9788 84.8518 22.4624C84.4848 21.9461 84.2965 21.3507 84.2831 20.6744H86.0045C86.0641 21.2563 86.3023 21.7457 86.7231 22.1426C87.1419 22.5395 87.7548 22.738 88.5598 22.738C89.3283 22.738 89.9354 22.5453 90.3792 22.1599C90.823 21.7746 91.0439 21.2794 91.0439 20.6744C91.0439 20.2004 90.9133 19.815 90.6539 19.5183C90.3926 19.2216 90.0679 18.9962 89.6779 18.842C89.2879 18.6879 88.7615 18.5222 88.0987 18.343C87.2821 18.1291 86.6289 17.9152 86.1371 17.7033C85.6452 17.4894 85.2264 17.1541 84.8767 16.6975C84.5271 16.2409 84.3542 15.6262 84.3542 14.8555C84.3542 14.1792 84.5252 13.58 84.8691 13.0578C85.213 12.5357 85.6933 12.133 86.3158 11.8478C86.9363 11.5626 87.6491 11.42 88.4541 11.42C89.6126 11.42 90.5617 11.711 91.3014 12.2929C92.0411 12.8748 92.458 13.6455 92.5521 14.6069H90.7769C90.7173 14.133 90.4695 13.7148 90.0314 13.3526C89.5934 12.9904 89.0132 12.8093 88.2927 12.8093C87.6184 12.8093 87.0689 12.9846 86.6424 13.3333C86.2159 13.684 86.0026 14.1734 86.0026 14.8015C86.0026 15.2524 86.1294 15.6204 86.3849 15.9056C86.6385 16.1908 86.9536 16.4066 87.3244 16.5549C87.6971 16.7033 88.2197 16.8728 88.8941 17.0617C89.7106 17.2871 90.3677 17.5087 90.8633 17.7283C91.3609 17.948 91.7855 18.2852 92.141 18.7418C92.4964 19.1985 92.6732 19.8189 92.6732 20.6012C92.6732 21.2062 92.5137 21.7765 92.1948 22.3102C91.8758 22.8439 91.4032 23.2775 90.775 23.6089C90.1486 23.9403 89.409 24.1079 88.5579 24.1079C87.7432 24.1079 87.0132 23.9634 86.3695 23.6725Z" fill="#EE712F"/>
<path d="M102.543 14.2312L96.6867 28.5742H95.019L96.9345 23.8767L93.0132 14.2312H94.8058L97.8567 22.133L100.873 14.2312H102.543Z" fill="#EE712F"/>
<path d="M110.883 15.131C111.617 15.8497 111.984 16.8844 111.984 18.237V23.9846H110.387V18.4663C110.387 17.4933 110.145 16.7495 109.659 16.2331C109.173 15.7168 108.512 15.4586 107.672 15.4586C106.821 15.4586 106.143 15.7264 105.642 16.2601C105.138 16.7938 104.887 17.5703 104.887 18.5915V23.9827H103.273V14.2312H104.887V15.6185C105.205 15.1195 105.642 14.7341 106.191 14.4624C106.741 14.1888 107.348 14.054 108.01 14.054C109.19 14.054 110.149 14.4123 110.883 15.131Z" fill="#EE712F"/>
<path d="M113.738 16.447C114.139 15.6936 114.693 15.1098 115.398 14.6936C116.101 14.2794 116.89 14.0713 117.767 14.0713C118.606 14.0713 119.342 14.2582 119.976 14.632C120.608 15.0058 121.073 15.4663 121.369 16.0116V14.2312H123.002V28.6089H121.369V22.185C121.061 22.7302 120.589 23.1927 119.949 23.5723C119.309 23.9518 118.566 24.1426 117.713 24.1426C116.862 24.1426 116.085 23.9287 115.388 23.5029C114.691 23.0751 114.139 22.4778 113.738 21.7052C113.336 20.9345 113.134 20.0559 113.134 19.0713C113.134 18.0751 113.336 17.2004 113.738 16.447ZM120.925 17.1676C120.629 16.6223 120.23 16.2042 119.728 15.9133C119.225 15.6223 118.671 15.4778 118.068 15.4778C117.465 15.4778 116.915 15.6204 116.418 15.9056C115.92 16.1908 115.524 16.605 115.229 17.1522C114.933 17.6975 114.785 18.3391 114.785 19.0732C114.785 19.8208 114.933 20.4701 115.229 21.0212C115.524 21.5723 115.92 21.9942 116.418 22.2852C116.915 22.5761 117.465 22.7206 118.068 22.7206C118.671 22.7206 119.225 22.5761 119.728 22.2852C120.231 21.9942 120.629 21.5742 120.925 21.0212C121.221 20.4682 121.369 19.8266 121.369 19.0906C121.369 18.3545 121.221 17.7129 120.925 17.1676Z" fill="#EE712F"/>
<path d="M8.96067 10.5684C8.96067 9.6898 9.67345 8.97497 10.5495 8.97497H18.0213V6.52795H10.5495C8.32858 6.52795 6.52069 8.34106 6.52069 10.5684V18.4663H8.96067V10.5684ZM8.96067 24.2466V23.9827H6.52069V24.2466C6.52069 26.474 8.32858 28.2871 10.5495 28.2871H15.2893V25.8401H10.5495C9.67345 25.842 8.96067 25.1253 8.96067 24.2466ZM24.1885 6.52795H19.6639V8.97497H24.1885C25.0645 8.97497 25.7773 9.6898 25.7773 10.5684V11.0154H28.2173V10.5684C28.2173 8.34106 26.4113 6.52795 24.1885 6.52795ZM25.7792 24.2466C25.7792 25.1253 25.0665 25.8401 24.1904 25.8401H16.9338V28.2871H24.1904C26.4113 28.2871 28.2192 26.474 28.2192 24.2466V16.5838H25.7792V24.2466Z" fill="#0E1929"/>
<path d="M15.2316 3.67437C15.2316 2.99807 15.7811 2.44701 16.4555 2.44701H18.4401C19.1145 2.44701 19.6639 2.99807 19.6639 3.67437V13.8266H22.1039V3.67437C22.1039 1.6474 20.4593 0 18.4401 0H16.4574C14.4362 0 12.7936 1.6474 12.7936 3.67437V5.03083H15.2336V3.67437H15.2316Z" fill="#EE7132"/>
<path d="M31.3221 19.63C31.9964 19.63 32.5459 19.079 32.5459 18.4027V16.4123C32.5459 15.736 31.9964 15.185 31.3221 15.185H12.882V12.7379H31.3221C33.3413 12.7379 34.9859 14.3853 34.9859 16.4123V18.4027C34.9859 20.4277 33.3432 22.0771 31.3221 22.0771H29.9695V19.63H31.3221Z" fill="#EE7132"/>
<path d="M19.7542 31.3256C19.7542 32.0019 19.2048 32.553 18.5304 32.553H16.5458C15.8714 32.553 15.3219 32.0019 15.3219 31.3256V21.1734H12.882V31.3256C12.882 33.3507 14.5246 35 16.5458 35H18.5304C20.5496 35 22.1942 33.3526 22.1942 31.3256V29.9692H19.7542V31.3256Z" fill="#EE7132"/>
<path d="M3.66381 15.368C2.98946 15.368 2.43998 15.9191 2.43998 16.5954V18.5857C2.43998 19.262 2.98946 19.8131 3.66381 19.8131H22.1039V22.2601H3.66381C1.64266 22.2601 0 20.6108 0 18.5857V16.5954C0 14.5703 1.64266 12.921 3.66381 12.921H5.01637V15.368H3.66381Z" fill="#EE7132"/>
</g>
<defs>
<clipPath id="clip0_168_993">
<rect width="123" height="35" fill="white"/>
</clipPath>
</defs>
</svg>
