<svg width="279" height="56" viewBox="0 0 279 56" fill="none" xmlns="http://www.w3.org/2000/svg">
<g clip-path="url(#clip0_13390_481)">
<path fill-rule="evenodd" clip-rule="evenodd" d="M35.8504 16.247C33.5872 14.7361 30.9264 13.9297 28.2044 13.9297V0.179688C33.6483 0.179688 38.9699 1.79254 43.4964 4.81428C48.0228 7.836 51.5507 12.1309 53.634 17.1558C55.7172 22.1808 56.2623 27.7102 55.2003 33.0447C54.1383 38.3791 51.5168 43.2792 47.6673 47.1251C43.818 50.9711 38.9135 53.5902 33.5742 54.6513C28.235 55.7124 22.7006 55.1677 17.6711 53.0864C12.6417 51.0049 8.3429 47.4802 5.31845 42.9579C2.29399 38.4355 0.679688 33.1186 0.679688 27.6797H14.4421C14.4421 30.3992 15.2492 33.0576 16.7614 35.3188C18.2736 37.58 20.4231 39.3423 22.9379 40.383C25.4525 41.4238 28.2197 41.696 30.8893 41.1654C33.559 40.6349 36.0111 39.3254 37.936 37.4025C39.8606 35.4794 41.1714 33.0294 41.7023 30.3622C42.2334 27.6949 41.9609 24.9302 40.9192 22.4178C39.8776 19.9053 38.1136 17.7578 35.8504 16.247Z" fill="#007DFC"/>
<path fill-rule="evenodd" clip-rule="evenodd" d="M14.4421 0.179695C14.4421 1.98537 14.0861 3.77337 13.3945 5.4416C12.7028 7.10982 11.6891 8.6256 10.4112 9.90241C9.13321 11.1792 7.61606 12.192 5.94632 12.883C4.27659 13.574 2.48698 13.9297 0.679688 13.9297L0.679688 27.6797C4.29429 27.6797 7.87349 26.9684 11.213 25.5864C14.5524 24.2044 17.5868 22.1787 20.1426 19.6251C22.6985 17.0716 24.726 14.04 26.1092 10.7035C27.4925 7.36702 28.2044 3.79103 28.2044 0.179688L14.4421 0.179695Z" fill="#007DFC"/>
<path d="M173.561 20.0519H166.884V41.2438H173.561V20.0519Z" fill="#007DFC"/>
<path d="M167.627 16.0838C168.325 16.7814 169.197 17.1303 170.245 17.1303C171.292 17.1303 172.151 16.7814 172.82 16.0838C173.49 15.3571 173.824 14.4849 173.824 13.4675C173.824 12.421 173.49 11.5489 172.82 10.8512C172.151 10.1535 171.292 9.80469 170.245 9.80469C169.197 9.80469 168.325 10.1535 167.627 10.8512C166.957 11.5489 166.622 12.421 166.622 13.4675C166.622 14.4849 166.957 15.3571 167.627 16.0838Z" fill="#007DFC"/>
<path d="M71.0828 41.2438V10.4587H77.9349V35.2264H91.5956V41.2438H71.0828Z" fill="#007DFC"/>
<path fill-rule="evenodd" clip-rule="evenodd" d="M103.935 41.7234C101.753 41.7234 99.7746 41.2438 97.9997 40.2845C96.2539 39.2961 94.8719 37.9589 93.8535 36.2728C92.8352 34.5867 92.326 32.6972 92.326 30.6042C92.326 28.5112 92.8352 26.6362 93.8535 24.9792C94.8719 23.3222 96.2539 22.014 97.9997 21.0548C99.7454 20.0663 101.724 19.5721 103.935 19.5721C106.147 19.5721 108.125 20.0519 109.871 21.0111C111.617 21.9704 112.999 23.2932 114.017 24.9792C115.035 26.6362 115.545 28.5112 115.545 30.6042C115.545 32.6972 115.035 34.5867 114.017 36.2728C112.999 37.9589 111.617 39.2961 109.871 40.2845C108.125 41.2438 106.147 41.7234 103.935 41.7234ZM103.935 35.6624C104.895 35.6624 105.739 35.4589 106.467 35.0519C107.194 34.6159 107.747 34.02 108.125 33.2641C108.532 32.4793 108.736 31.5925 108.736 30.6042C108.736 29.6158 108.532 28.7582 108.125 28.0316C107.718 27.2757 107.15 26.6944 106.423 26.2874C105.725 25.8512 104.895 25.6333 103.935 25.6333C103.004 25.6333 102.175 25.8512 101.448 26.2874C100.72 26.6944 100.153 27.2757 99.7454 28.0316C99.3381 28.7874 99.1345 29.6594 99.1345 30.6478C99.1345 31.6071 99.3381 32.4793 99.7454 33.2641C100.153 34.02 100.72 34.6159 101.448 35.0519C102.175 35.4589 103.004 35.6624 103.935 35.6624Z" fill="#007DFC"/>
<path fill-rule="evenodd" clip-rule="evenodd" d="M120.833 49.5287C122.608 50.3426 124.659 50.7496 126.987 50.7496C129.256 50.7496 131.279 50.299 133.053 49.3978C134.828 48.4966 136.225 47.2468 137.243 45.6479C138.261 44.0491 138.771 42.1595 138.771 39.9792V20.0519H132.224V21.4757C131.737 21.0662 131.184 20.7225 130.566 20.4443C129.431 19.892 128.136 19.6157 126.681 19.6157C124.732 19.6157 123.001 20.0809 121.488 21.0111C119.975 21.9122 118.782 23.1623 117.909 24.7611C117.036 26.3309 116.6 28.1041 116.6 30.081C116.6 32.0287 117.036 33.8019 117.909 35.4007C118.782 36.9996 119.975 38.2642 121.488 39.1943C123.001 40.1245 124.732 40.5897 126.681 40.5897C128.107 40.5897 129.402 40.3136 130.566 39.7613C131.129 39.4937 131.639 39.1784 132.093 38.8153V40.1537C132.093 41.6362 131.613 42.7845 130.653 43.5985C129.722 44.4125 128.427 44.8193 126.769 44.8193C125.43 44.8193 124.281 44.5868 123.321 44.1217C122.39 43.6566 121.546 42.9734 120.789 42.0722L116.687 46.1711C117.705 47.6246 119.087 48.7439 120.833 49.5287ZM130.347 34.049C129.678 34.456 128.878 34.6595 127.947 34.6595C127.016 34.6595 126.201 34.456 125.503 34.049C124.834 33.642 124.31 33.0896 123.932 32.3919C123.553 31.6653 123.364 30.8948 123.364 30.081C123.364 29.2088 123.553 28.424 123.932 27.7263C124.31 27.0286 124.848 26.4763 125.547 26.0693C126.245 25.6623 127.045 25.4588 127.947 25.4588C128.878 25.4588 129.678 25.6623 130.347 26.0693C131.046 26.4763 131.569 27.0286 131.919 27.7263C132.297 28.424 132.486 29.2088 132.486 30.081C132.486 30.953 132.297 31.7379 131.919 32.4355C131.569 33.1042 131.046 33.642 130.347 34.049Z" fill="#007DFC"/>
<path fill-rule="evenodd" clip-rule="evenodd" d="M152.824 41.7234C150.641 41.7234 148.662 41.2438 146.888 40.2845C145.142 39.2961 143.76 37.9589 142.742 36.2728C141.723 34.5867 141.214 32.6972 141.214 30.6042C141.214 28.5112 141.723 26.6362 142.742 24.9792C143.76 23.3222 145.142 22.014 146.888 21.0548C148.633 20.0663 150.613 19.5721 152.824 19.5721C155.034 19.5721 157.013 20.0519 158.758 21.0111C160.505 21.9704 161.887 23.2932 162.905 24.9792C163.923 26.6362 164.433 28.5112 164.433 30.6042C164.433 32.6972 163.923 34.5867 162.905 36.2728C161.887 37.9589 160.505 39.2961 158.758 40.2845C157.013 41.2438 155.034 41.7234 152.824 41.7234ZM152.824 35.6624C153.783 35.6624 154.627 35.4589 155.355 35.0519C156.082 34.6159 156.635 34.02 157.013 33.2641C157.421 32.4793 157.624 31.5925 157.624 30.6042C157.624 29.6158 157.421 28.7582 157.013 28.0316C156.606 27.2757 156.039 26.6944 155.311 26.2874C154.613 25.8512 153.783 25.6333 152.824 25.6333C151.892 25.6333 151.063 25.8512 150.336 26.2874C149.608 26.6944 149.041 27.2757 148.633 28.0316C148.226 28.7874 148.022 29.6594 148.022 30.6478C148.022 31.6071 148.226 32.4793 148.633 33.2641C149.041 34.02 149.608 34.6159 150.336 35.0519C151.063 35.4589 151.892 35.6624 152.824 35.6624Z" fill="#007DFC"/>
<path fill-rule="evenodd" clip-rule="evenodd" d="M189.611 41.6798C188.187 41.6798 186.876 41.4037 185.683 40.8514C185.056 40.5607 184.489 40.2136 183.982 39.8102V50.1828H177.391V20.0519H184.069V21.5145C184.553 21.1186 185.091 20.7764 185.683 20.4879C186.876 19.9064 188.187 19.6157 189.611 19.6157C191.619 19.6157 193.394 20.0955 194.936 21.0548C196.507 22.014 197.729 23.3222 198.602 24.9792C199.505 26.6362 199.955 28.5257 199.955 30.6478C199.955 32.7699 199.505 34.6595 198.602 36.3165C197.729 37.9735 196.507 39.2815 194.936 40.2409C193.394 41.2002 191.619 41.6798 189.611 41.6798ZM188.39 35.6624C189.349 35.6624 190.179 35.4443 190.877 35.0083C191.605 34.5723 192.172 33.9762 192.58 33.2205C192.987 32.4647 193.191 31.6071 193.191 30.6478C193.191 29.6594 192.987 28.7874 192.58 28.0315C192.172 27.2757 191.605 26.6944 190.877 26.2874C190.179 25.8512 189.365 25.6333 188.433 25.6333C187.503 25.6333 186.673 25.8512 185.946 26.2874C185.247 26.6944 184.695 27.2757 184.288 28.0315C183.88 28.7874 183.677 29.6594 183.677 30.6478C183.677 31.6071 183.865 32.4647 184.244 33.2205C184.651 33.9762 185.218 34.5723 185.946 35.0083C186.673 35.4443 187.487 35.6624 188.39 35.6624Z" fill="#007DFC"/>
<path d="M206.49 41.2874C207.713 41.6072 208.948 41.767 210.199 41.767C212.847 41.767 214.942 41.1566 216.485 39.9356C218.055 38.7148 218.841 37.0723 218.841 35.0083C218.841 33.6711 218.595 32.5955 218.099 31.7816C217.605 30.9386 216.965 30.2699 216.179 29.7758C215.393 29.2816 214.563 28.889 213.691 28.5984C212.818 28.3077 211.989 28.0606 211.204 27.8571C210.418 27.6536 209.778 27.4211 209.283 27.1594C208.789 26.8978 208.541 26.5489 208.541 26.1129C208.541 25.7059 208.731 25.4007 209.108 25.1972C209.487 24.9646 210.054 24.8485 210.81 24.8485C211.596 24.8485 212.396 25.0082 213.211 25.3281C214.054 25.6477 214.811 26.2002 215.48 26.9851L219.277 23.1479C218.318 21.9269 217.067 21.0111 215.524 20.4007C214.012 19.7612 212.353 19.4414 210.549 19.4414C208.833 19.4414 207.334 19.7321 206.054 20.3134C204.773 20.8949 203.783 21.6943 203.086 22.7117C202.388 23.7001 202.038 24.8775 202.038 26.2438C202.038 27.5228 202.286 28.5839 202.78 29.4269C203.274 30.2408 203.916 30.8804 204.7 31.3455C205.486 31.8106 206.316 32.174 207.188 32.4356C208.061 32.6972 208.891 32.9443 209.676 33.177C210.461 33.3805 211.102 33.6276 211.596 33.9182C212.121 34.1799 212.382 34.5723 212.382 35.0955C212.382 35.5025 212.163 35.8222 211.727 36.0548C211.32 36.2874 210.724 36.4037 209.938 36.4037C208.803 36.4037 207.755 36.2002 206.796 35.7932C205.835 35.3572 205.006 34.7612 204.308 34.0054L200.511 37.8426C201.239 38.6275 202.111 39.3253 203.13 39.9356C204.177 40.517 205.297 40.9676 206.49 41.2874Z" fill="#007DFC"/>
<path d="M231.018 41.7234C229.069 41.7234 227.338 41.331 225.825 40.5461C224.34 39.7321 223.177 38.6274 222.334 37.2321C221.489 35.8077 221.068 34.1799 221.068 32.3484V20.0519H227.745V32.2612C227.745 32.9879 227.861 33.613 228.095 34.1361C228.356 34.6595 228.735 35.0665 229.229 35.3571C229.724 35.6478 230.32 35.7932 231.018 35.7932C232.007 35.7932 232.793 35.4879 233.375 34.8774C233.957 34.2379 234.248 33.3659 234.248 32.2612V20.0519H240.925V32.3048C240.925 34.1653 240.504 35.8077 239.659 37.2321C238.816 38.6274 237.653 39.7321 236.168 40.5461C234.684 41.331 232.968 41.7234 231.018 41.7234Z" fill="#007DFC"/>
<path d="M250.922 20.0519H244.245V41.2438H250.922V28.86C250.922 28.1333 251.068 27.5228 251.359 27.0286C251.679 26.5344 252.102 26.1565 252.625 25.8949C253.149 25.6041 253.745 25.4588 254.414 25.4588C255.374 25.4588 256.174 25.764 256.814 26.3745C257.484 26.9559 257.819 27.7845 257.819 28.86V41.2438H264.496V28.86C264.496 28.1333 264.642 27.5228 264.932 27.0286C265.253 26.5344 265.674 26.1565 266.199 25.8949C266.722 25.6041 267.319 25.4588 267.988 25.4588C268.948 25.4588 269.748 25.764 270.388 26.3745C271.057 26.9559 271.391 27.7845 271.391 28.86V41.2438H278.07V28.1187C278.07 26.3455 277.692 24.8338 276.935 23.5838C276.207 22.3047 275.203 21.3309 273.923 20.6624C272.672 19.9646 271.232 19.6157 269.602 19.6157C267.944 19.6157 266.445 19.9791 265.107 20.706C264.237 21.1689 263.478 21.7665 262.827 22.4985C262.22 21.7328 261.482 21.1062 260.611 20.6186C259.448 19.9501 258.124 19.6157 256.641 19.6157C255.069 19.6157 253.658 19.9501 252.407 20.6186C251.862 20.8968 251.368 21.23 250.922 21.6181V20.0519Z" fill="#007DFC"/>
</g>
<defs>
<clipPath id="clip0_13390_481">
<rect width="278" height="55" fill="white" transform="translate(0.679688 0.179688)"/>
</clipPath>
</defs>
</svg>
