<svg width="56" height="55" viewBox="0 0 56 55" fill="none" xmlns="http://www.w3.org/2000/svg">
<path fill-rule="evenodd" clip-rule="evenodd" d="M35.1707 16.0673C32.9075 14.5564 30.2467 13.75 27.5248 13.75V0C32.9686 0 38.2902 1.61285 42.8167 4.63459C47.3431 7.65632 50.871 11.9512 52.9543 16.9762C55.0375 22.0011 55.5827 27.5305 54.5206 32.865C53.4586 38.1994 50.8371 43.0995 46.9876 46.9454C43.1383 50.7914 38.2338 53.4105 32.8946 54.4716C27.5553 55.5327 22.0209 54.988 16.9914 52.9067C11.962 50.8252 7.66321 47.3006 4.63876 42.7782C1.6143 38.2558 0 32.939 0 27.5H13.7624C13.7624 30.2195 14.5695 32.8779 16.0817 35.1391C17.594 37.4003 19.7434 39.1626 22.2582 40.2034C24.7728 41.2441 27.54 41.5163 30.2097 40.9857C32.8793 40.4553 35.3315 39.1457 37.2563 37.2228C39.1809 35.2997 40.4917 32.8497 41.0226 30.1825C41.5537 27.5153 41.2812 24.7506 40.2395 22.2382C39.1979 19.7256 37.4339 17.5781 35.1707 16.0673Z" fill="white"/>
<path fill-rule="evenodd" clip-rule="evenodd" d="M13.7624 7.26678e-06C13.7624 1.80568 13.4064 3.59368 12.7148 5.26191C12.0231 6.93013 11.0094 8.44592 9.73147 9.72273C8.45352 10.9995 6.93637 12.0123 5.26663 12.7034C3.5969 13.3943 1.80729 13.75 6.01567e-07 13.75L0 27.5C3.6146 27.5 7.19381 26.7887 10.5333 25.4067C13.8727 24.0247 16.9071 21.999 19.4629 19.4454C22.0188 16.8919 24.0463 13.8603 25.4296 10.5238C26.8128 7.18734 27.5247 3.61135 27.5247 0L13.7624 7.26678e-06Z" fill="white"/>
</svg>
