<svg width="156" height="70" viewBox="0 0 156 70" fill="none" xmlns="http://www.w3.org/2000/svg">
<g clip-path="url(#clip0_13390_2822)">
<path fill-rule="evenodd" clip-rule="evenodd" d="M22.1192 28.5607C20.9011 27.7476 19.4691 27.3136 18.0041 27.3136V19.9133C20.934 19.9133 23.7981 20.7814 26.2342 22.4077C28.6704 24.034 30.5691 26.3455 31.6903 29.0499C32.8115 31.7543 33.1049 34.7303 32.5333 37.6013C31.9617 40.4723 30.5508 43.1095 28.4791 45.1793C26.4073 47.2493 23.7677 48.6589 20.8942 49.2299C18.0206 49.801 15.042 49.5079 12.3351 48.3877C9.62825 47.2675 7.31465 45.3705 5.68689 42.9365C4.05912 40.5026 3.19031 37.6411 3.19031 34.7138H10.5972C10.5972 36.1775 11.0316 37.6082 11.8455 38.8252C12.6594 40.0422 13.8162 40.9906 15.1697 41.5508C16.523 42.1109 18.0124 42.2574 19.4491 41.9718C20.8859 41.6863 22.2057 40.9815 23.2416 39.9466C24.2775 38.9116 24.9829 37.593 25.2687 36.1575C25.5545 34.722 25.4079 33.2341 24.8472 31.8819C24.2866 30.5297 23.3373 29.3739 22.1192 28.5607Z" fill="white"/>
<path fill-rule="evenodd" clip-rule="evenodd" d="M10.5972 19.9133C10.5972 20.8851 10.4056 21.8474 10.0334 22.7453C9.66117 23.6431 9.11558 24.4589 8.42778 25.1461C7.73999 25.8333 6.92346 26.3784 6.02481 26.7503C5.12616 27.1222 4.16299 27.3136 3.19031 27.3136L3.19031 34.7138C5.13568 34.7138 7.06201 34.331 8.85932 33.5872C10.6566 32.8434 12.2897 31.7532 13.6652 30.3788C15.0408 29.0045 16.132 27.3729 16.8765 25.5772C17.621 23.7816 18.0041 21.857 18.0041 19.9133L10.5972 19.9133Z" fill="white"/>
<path d="M96.2352 30.6086H92.6414V42.0141H96.2352V30.6086Z" fill="white"/>
<path d="M93.0413 28.4729C93.4168 28.8484 93.8864 29.0361 94.4501 29.0361C95.0138 29.0361 95.476 28.8484 95.8359 28.4729C96.1967 28.0818 96.3766 27.6124 96.3766 27.0648C96.3766 26.5016 96.1967 26.0322 95.8359 25.6567C95.476 25.2812 95.0138 25.0935 94.4501 25.0935C93.8864 25.0935 93.4168 25.2812 93.0413 25.6567C92.6806 26.0322 92.5006 26.5016 92.5006 27.0648C92.5006 27.6124 92.6806 28.0818 93.0413 28.4729Z" fill="white"/>
<path d="M41.0813 42.0141V25.4456H44.7691V38.7755H52.1213V42.0141H41.0813Z" fill="white"/>
<path fill-rule="evenodd" clip-rule="evenodd" d="M58.7625 42.2721C57.5881 42.2721 56.5232 42.014 55.568 41.4977C54.6284 40.9658 53.8846 40.2461 53.3365 39.3386C52.7885 38.4312 52.5144 37.4143 52.5144 36.2878C52.5144 35.1613 52.7885 34.1522 53.3365 33.2604C53.8846 32.3686 54.6284 31.6646 55.568 31.1483C56.5075 30.6163 57.5724 30.3503 58.7625 30.3503C59.9526 30.3503 61.0175 30.6085 61.957 31.1248C62.8966 31.6411 63.6405 32.353 64.1885 33.2604C64.7366 34.1522 65.0107 35.1613 65.0107 36.2878C65.0107 37.4143 64.7366 38.4312 64.1885 39.3386C63.6405 40.2461 62.8966 40.9658 61.957 41.4977C61.0175 42.014 59.9526 42.2721 58.7625 42.2721ZM58.7625 39.0101C59.2793 39.0101 59.7334 38.9006 60.1249 38.6815C60.5164 38.4469 60.8139 38.1262 61.0175 37.7194C61.2367 37.297 61.3463 36.8197 61.3463 36.2878C61.3463 35.7559 61.2367 35.2943 61.0175 34.9032C60.7982 34.4964 60.4929 34.1835 60.1014 33.9645C59.7255 33.7297 59.2793 33.6124 58.7625 33.6124C58.2614 33.6124 57.8152 33.7297 57.4236 33.9645C57.0322 34.1835 56.7268 34.4964 56.5075 34.9032C56.2883 35.31 56.1787 35.7793 56.1787 36.3112C56.1787 36.8276 56.2883 37.297 56.5075 37.7194C56.7268 38.1262 57.0322 38.4469 57.4236 38.6815C57.8152 38.9006 58.2614 39.0101 58.7625 39.0101Z" fill="white"/>
<path fill-rule="evenodd" clip-rule="evenodd" d="M67.8568 46.4729C68.812 46.911 69.916 47.13 71.1688 47.13C72.3902 47.13 73.4786 46.8875 74.4338 46.4025C75.389 45.9175 76.1406 45.2448 76.6887 44.3843C77.2368 43.5238 77.5112 42.5069 77.5112 41.3334V30.6085H73.9874V31.3748C73.7254 31.1544 73.4278 30.9694 73.0949 30.8197C72.4841 30.5225 71.7873 30.3738 71.0044 30.3738C69.9552 30.3738 69.0234 30.6241 68.2092 31.1248C67.3948 31.6098 66.7528 32.2825 66.283 33.143C65.8132 33.9879 65.5784 34.9423 65.5784 36.0062C65.5784 37.0544 65.8132 38.0088 66.283 38.8693C66.7528 39.7298 67.3948 40.4104 68.2092 40.911C69.0234 41.4116 69.9552 41.662 71.0044 41.662C71.7717 41.662 72.4685 41.5134 73.0949 41.2161C73.3983 41.0721 73.6723 40.9024 73.917 40.707V41.4273C73.917 42.2252 73.6586 42.8432 73.1419 43.2813C72.6408 43.7194 71.9439 43.9384 71.0513 43.9384C70.331 43.9384 69.7125 43.8132 69.1957 43.5629C68.6946 43.3126 68.2404 42.9449 67.8333 42.4599L65.6253 44.6659C66.1734 45.4482 66.9172 46.0505 67.8568 46.4729ZM72.9774 38.1417C72.6172 38.3608 72.1867 38.4703 71.6855 38.4703C71.1844 38.4703 70.7459 38.3608 70.3701 38.1417C70.0099 37.9227 69.7281 37.6254 69.5245 37.2499C69.3209 36.8588 69.2192 36.4442 69.2192 36.0062C69.2192 35.5368 69.3209 35.1144 69.5245 34.7389C69.7281 34.3634 70.0178 34.0661 70.3936 33.8471C70.7694 33.628 71.2001 33.5185 71.6855 33.5185C72.1867 33.5185 72.6172 33.628 72.9774 33.8471C73.3533 34.0661 73.6351 34.3634 73.8231 34.7389C74.0266 35.1144 74.1284 35.5368 74.1284 36.0062C74.1284 36.4755 74.0266 36.8979 73.8231 37.2734C73.6351 37.6333 73.3533 37.9227 72.9774 38.1417Z" fill="white"/>
<path fill-rule="evenodd" clip-rule="evenodd" d="M85.0744 42.2721C83.8997 42.2721 82.8345 42.014 81.8798 41.4977C80.9399 40.9658 80.1962 40.2461 79.6481 39.3386C79.1 38.4312 78.8259 37.4143 78.8259 36.2878C78.8259 35.1613 79.1 34.1522 79.6481 33.2604C80.1962 32.3686 80.9399 31.6646 81.8798 31.1483C82.819 30.6163 83.8841 30.3503 85.0744 30.3503C86.264 30.3503 87.3291 30.6085 88.2683 31.1248C89.2082 31.6411 89.9518 32.353 90.5 33.2604C91.0481 34.1522 91.3221 35.1613 91.3221 36.2878C91.3221 37.4143 91.0481 38.4312 90.5 39.3386C89.9518 40.2461 89.2082 40.9658 88.2683 41.4977C87.3291 42.014 86.264 42.2721 85.0744 42.2721ZM85.0744 39.0101C85.5907 39.0101 86.0447 38.9006 86.4365 38.6815C86.8276 38.4469 87.1254 38.1262 87.3291 37.7194C87.5483 37.297 87.6579 36.8197 87.6579 36.2878C87.6579 35.7559 87.5483 35.2943 87.3291 34.9032C87.1098 34.4964 86.8047 34.1835 86.4128 33.9645C86.0373 33.7297 85.5907 33.6124 85.0744 33.6124C84.573 33.6124 84.1263 33.7297 83.7352 33.9645C83.3434 34.1835 83.0382 34.4964 82.819 34.9032C82.5997 35.31 82.4901 35.7793 82.4901 36.3112C82.4901 36.8276 82.5997 37.297 82.819 37.7194C83.0382 38.1262 83.3434 38.4469 83.7352 38.6815C84.1263 38.9006 84.573 39.0101 85.0744 39.0101Z" fill="white"/>
<path fill-rule="evenodd" clip-rule="evenodd" d="M104.873 42.2487C104.106 42.2487 103.401 42.1001 102.759 41.8028C102.421 41.6464 102.116 41.4596 101.844 41.2425V46.825H98.2965V30.6085H101.89V31.3957C102.151 31.1826 102.441 30.9984 102.759 30.8432C103.401 30.5302 104.106 30.3738 104.873 30.3738C105.954 30.3738 106.909 30.632 107.739 31.1483C108.585 31.6645 109.242 32.3686 109.712 33.2604C110.198 34.1522 110.44 35.1691 110.44 36.3112C110.44 37.4534 110.198 38.4703 109.712 39.3621C109.242 40.2539 108.585 40.9579 107.739 41.4742C106.909 41.9905 105.954 42.2487 104.873 42.2487ZM104.216 39.0101C104.732 39.0101 105.179 38.8927 105.555 38.6581C105.946 38.4234 106.252 38.1026 106.471 37.6959C106.69 37.2891 106.8 36.8275 106.8 36.3112C106.8 35.7793 106.69 35.31 106.471 34.9032C106.252 34.4964 105.946 34.1835 105.555 33.9645C105.179 33.7297 104.741 33.6124 104.239 33.6124C103.738 33.6124 103.292 33.7297 102.901 33.9645C102.524 34.1835 102.227 34.4964 102.008 34.9032C101.789 35.31 101.679 35.7793 101.679 36.3112C101.679 36.8275 101.781 37.2891 101.984 37.6959C102.204 38.1026 102.509 38.4234 102.901 38.6581C103.292 38.8927 103.73 39.0101 104.216 39.0101Z" fill="white"/>
<path d="M113.958 42.0375C114.615 42.2097 115.281 42.2957 115.954 42.2957C117.379 42.2957 118.506 41.9672 119.337 41.31C120.182 40.653 120.605 39.769 120.605 38.6581C120.605 37.9385 120.472 37.3596 120.205 36.9215C119.94 36.4678 119.595 36.1079 119.172 35.842C118.749 35.576 118.303 35.3647 117.833 35.2083C117.363 35.0519 116.917 34.9189 116.495 34.8094C116.072 34.6998 115.727 34.5747 115.461 34.4339C115.195 34.293 115.061 34.1053 115.061 33.8706C115.061 33.6516 115.164 33.4873 115.366 33.3778C115.57 33.2526 115.875 33.1901 116.283 33.1901C116.706 33.1901 117.136 33.2761 117.574 33.4482C118.029 33.6203 118.436 33.9176 118.796 34.34L120.839 32.2748C120.323 31.6177 119.65 31.1248 118.82 30.7963C118.006 30.4522 117.113 30.28 116.142 30.28C115.218 30.28 114.412 30.4365 113.723 30.7494C113.033 31.0623 112.501 31.4926 112.125 32.0401C111.75 32.572 111.562 33.2057 111.562 33.9411C111.562 34.6295 111.695 35.2005 111.961 35.6542C112.227 36.0923 112.572 36.4365 112.994 36.6868C113.417 36.9371 113.864 37.1327 114.333 37.2735C114.803 37.4143 115.249 37.5473 115.672 37.6725C116.095 37.782 116.44 37.915 116.706 38.0715C116.988 38.2123 117.129 38.4235 117.129 38.7051C117.129 38.9241 117.011 39.0962 116.776 39.2214C116.557 39.3465 116.236 39.4091 115.813 39.4091C115.202 39.4091 114.638 39.2996 114.122 39.0806C113.605 38.8459 113.158 38.5252 112.783 38.1184L110.739 40.1836C111.131 40.606 111.601 40.9815 112.149 41.31C112.713 41.6229 113.316 41.8654 113.958 42.0375Z" fill="white"/>
<path d="M127.158 42.2723C126.109 42.2723 125.178 42.061 124.364 41.6386C123.564 41.2005 122.939 40.606 122.485 39.855C122.03 39.0884 121.803 38.2123 121.803 37.2266V30.6086H125.397V37.1797C125.397 37.5708 125.459 37.9072 125.585 38.1888C125.726 38.4704 125.929 38.6895 126.195 38.8459C126.462 39.0024 126.783 39.0806 127.158 39.0806C127.691 39.0806 128.114 38.9163 128.427 38.5877C128.74 38.2436 128.897 37.7742 128.897 37.1797V30.6086H132.491V37.2032C132.491 38.2045 132.264 39.0884 131.809 39.855C131.355 40.606 130.729 41.2005 129.93 41.6386C129.131 42.061 128.208 42.2723 127.158 42.2723Z" fill="white"/>
<path d="M137.871 30.6085H134.277V42.014H137.871V35.349C137.871 34.9579 137.949 34.6294 138.106 34.3634C138.278 34.0974 138.506 33.894 138.787 33.7533C139.069 33.5967 139.39 33.5185 139.75 33.5185C140.267 33.5185 140.697 33.6828 141.042 34.0114C141.403 34.3243 141.583 34.7702 141.583 35.349V42.014H145.176V35.349C145.176 34.9579 145.255 34.6294 145.411 34.3634C145.584 34.0974 145.81 33.894 146.093 33.7533C146.374 33.5967 146.696 33.5185 147.056 33.5185C147.573 33.5185 148.003 33.6828 148.347 34.0114C148.707 34.3243 148.887 34.7702 148.887 35.349V42.014H152.482V34.9501C152.482 33.9958 152.278 33.1822 151.871 32.5094C151.479 31.821 150.939 31.2969 150.25 30.9371C149.577 30.5615 148.801 30.3738 147.924 30.3738C147.032 30.3738 146.225 30.5694 145.505 30.9605C145.037 31.2097 144.628 31.5313 144.278 31.9253C143.951 31.5132 143.554 31.176 143.085 30.9136C142.46 30.5538 141.747 30.3738 140.948 30.3738C140.103 30.3738 139.343 30.5538 138.67 30.9136C138.377 31.0633 138.111 31.2426 137.871 31.4515V30.6085Z" fill="white"/>
</g>
<defs>
<clipPath id="clip0_13390_2822">
<rect width="149.62" height="29.601" fill="white" transform="translate(3.19031 19.9133)"/>
</clipPath>
</defs>
</svg>
