<svg width="22" height="21" viewBox="0 0 22 21" fill="none" xmlns="http://www.w3.org/2000/svg">
<path d="M5.51314 11.2569H2.0495C1.52996 11.2569 1.18359 11.6032 1.18359 12.1228V19.0501C1.18359 19.5696 1.52996 19.916 2.0495 19.916H5.51314C6.03268 19.916 6.37905 19.5696 6.37905 19.0501V12.1228C6.37905 11.6032 6.03268 11.2569 5.51314 11.2569ZM19.3677 7.79324H15.904C15.3845 7.79324 15.0381 8.1396 15.0381 8.65915V19.0501C15.0381 19.5696 15.3845 19.916 15.904 19.916H19.3677C19.8872 19.916 20.2336 19.5696 20.2336 19.0501V8.65915C20.2336 8.1396 19.8872 7.79324 19.3677 7.79324ZM12.4404 0.865967H8.97678C8.45723 0.865967 8.11087 1.21233 8.11087 1.73188V19.0501C8.11087 19.5696 8.45723 19.916 8.97678 19.916H12.4404C12.96 19.916 13.3063 19.5696 13.3063 19.0501V1.73188C13.3063 1.21233 12.96 0.865967 12.4404 0.865967Z" fill="#151515"/>
</svg>
