<svg width="16" height="16" viewBox="0 0 16 16" fill="none" xmlns="http://www.w3.org/2000/svg">
<path d="M14.1714 7.30792C14.4874 7.72125 14.4874 8.27925 14.1714 8.69192C13.176 9.99125 10.788 12.6666 8.00003 12.6666C5.21203 12.6666 2.82403 9.99125 1.82869 8.69192C1.67495 8.49401 1.59149 8.25053 1.59149 7.99992C1.59149 7.74931 1.67495 7.50583 1.82869 7.30792C2.82403 6.00859 5.21203 3.33325 8.00003 3.33325C10.788 3.33325 13.176 6.00859 14.1714 7.30792V7.30792Z" stroke="#4d7c2f" stroke-width="1.33333" stroke-linecap="round" stroke-linejoin="round"/>
<path d="M8 10C9.10457 10 10 9.10457 10 8C10 6.89543 9.10457 6 8 6C6.89543 6 6 6.89543 6 8C6 9.10457 6.89543 10 8 10Z" stroke="#4d7c2f" stroke-width="1.33333" stroke-linecap="round" stroke-linejoin="round"/>
</svg>
