<svg width="22" height="22" viewBox="0 0 22 22" fill="none" xmlns="http://www.w3.org/2000/svg">
<path d="M18.141 14.1258C19.0118 12.1366 19.0118 9.85409 18.141 7.87409L15.6293 9.01075C16.1793 10.2758 16.1793 11.7149 15.6385 12.9891L18.141 14.1258ZM14.1352 3.85909C13.1477 3.42829 12.082 3.20594 11.0047 3.20594C9.92745 3.20594 8.86174 3.42829 7.87433 3.85909L9.011 6.36159C10.2852 5.82075 11.7243 5.82075 12.9985 6.37075L14.1352 3.85909ZM3.85933 7.86492C3.42852 8.85394 3.20618 9.92114 3.20618 10.9999C3.20618 12.0787 3.42852 13.1459 3.85933 14.1349L6.371 12.9891C5.821 11.7241 5.821 10.2758 6.371 9.00159L3.85933 7.86492ZM7.87433 18.1408C8.86181 18.5723 9.92806 18.7943 11.0057 18.7927C12.0834 18.7911 13.149 18.566 14.1352 18.1316L12.9985 15.6291C12.3707 15.9004 11.6942 16.0411 11.0103 16.0427C10.3263 16.0442 9.64923 15.9066 9.02016 15.6383L7.87433 18.1408ZM11.0002 1.83325C12.2039 1.83325 13.3959 2.07035 14.5081 2.53102C15.6202 2.99169 16.6308 3.6669 17.482 4.51811C18.3332 5.36931 19.0084 6.37984 19.4691 7.49199C19.9297 8.60414 20.1668 9.79613 20.1668 10.9999C20.1668 13.4311 19.2011 15.7626 17.482 17.4817C15.7629 19.2008 13.4313 20.1666 11.0002 20.1666C9.79638 20.1666 8.60438 19.9295 7.49223 19.4688C6.38008 19.0081 5.36955 18.3329 4.51835 17.4817C2.79927 15.7626 1.8335 13.4311 1.8335 10.9999C1.8335 8.56877 2.79927 6.23719 4.51835 4.51811C6.23743 2.79902 8.56901 1.83325 11.0002 1.83325ZM11.0002 7.33325C10.0277 7.33325 9.09507 7.71956 8.40744 8.40719C7.7198 9.09483 7.3335 10.0275 7.3335 10.9999C7.3335 11.9724 7.7198 12.905 8.40744 13.5926C9.09507 14.2803 10.0277 14.6666 11.0002 14.6666C11.9726 14.6666 12.9053 14.2803 13.5929 13.5926C14.2805 12.905 14.6668 11.9724 14.6668 10.9999C14.6668 10.0275 14.2805 9.09483 13.5929 8.40719C12.9053 7.71956 11.9726 7.33325 11.0002 7.33325Z" fill="#646464"/>
</svg>
