<svg width="15" height="14" viewBox="0 0 15 14" fill="none" xmlns="http://www.w3.org/2000/svg">
<path d="M2.10896 3.5H3.27563H12.609" stroke="#6A6A6A" stroke-width="1.16667" stroke-linecap="round" stroke-linejoin="round"/>
<path d="M11.4423 3.50008V11.6667C11.4423 11.9762 11.3194 12.2729 11.1006 12.4917C10.8818 12.7105 10.5851 12.8334 10.2756 12.8334H4.4423C4.13288 12.8334 3.83614 12.7105 3.61734 12.4917C3.39855 12.2729 3.27563 11.9762 3.27563 11.6667V3.50008M5.02563 3.50008V2.33341C5.02563 2.024 5.14855 1.72725 5.36734 1.50846C5.58614 1.28966 5.88288 1.16675 6.1923 1.16675H8.52564C8.83505 1.16675 9.1318 1.28966 9.35059 1.50846C9.56939 1.72725 9.6923 2.024 9.6923 2.33341V3.50008" stroke="#6A6A6A" stroke-width="1.16667" stroke-linecap="round" stroke-linejoin="round"/>
<path d="M6.19231 6.41675V9.91675" stroke="#6A6A6A" stroke-width="1.16667" stroke-linecap="round" stroke-linejoin="round"/>
<path d="M8.52565 6.41675V9.91675" stroke="#6A6A6A" stroke-width="1.16667" stroke-linecap="round" stroke-linejoin="round"/>
</svg>
