<svg width="22" height="22" viewBox="0 0 22 22" fill="none" xmlns="http://www.w3.org/2000/svg">
<path d="M18.5624 11.5226V10.4707L19.8824 9.31572C20.1257 9.10126 20.2854 8.80768 20.3332 8.48687C20.381 8.16607 20.3138 7.83869 20.1436 7.5626L18.5211 4.8126C18.4006 4.60378 18.2272 4.43033 18.0184 4.30966C17.8097 4.18899 17.5729 4.12534 17.3317 4.1251C17.1823 4.12395 17.0337 4.14717 16.8917 4.19385L15.2211 4.7576C14.9327 4.56593 14.6318 4.39367 14.3205 4.24197L13.9699 2.50947C13.907 2.19295 13.7348 1.90862 13.4834 1.70627C13.2321 1.50391 12.9175 1.39641 12.5949 1.4026H9.37737C9.05472 1.39641 8.74018 1.50391 8.48881 1.70627C8.23743 1.90862 8.06524 2.19295 8.00237 2.50947L7.65174 4.24197C7.3382 4.39363 7.03504 4.56589 6.74424 4.7576L5.10799 4.16635C4.96451 4.12896 4.81592 4.11503 4.66799 4.1251C4.42687 4.12534 4.19005 4.18899 3.98129 4.30966C3.77254 4.43033 3.59918 4.60378 3.47862 4.8126L1.85612 7.5626C1.69565 7.83828 1.63602 8.16117 1.68744 8.47598C1.73886 8.79079 1.89814 9.07793 2.13799 9.28822L3.43737 10.4776V11.5295L2.13799 12.6845C1.89137 12.8962 1.72773 13.1885 1.67613 13.5094C1.62453 13.8304 1.6883 14.1592 1.85612 14.4376L3.47862 17.1876C3.59918 17.3964 3.77254 17.5699 3.98129 17.6905C4.19005 17.8112 4.42687 17.8748 4.66799 17.8751C4.81742 17.8762 4.96604 17.853 5.10799 17.8063L6.77862 17.2426C7.06705 17.4343 7.36793 17.6065 7.67924 17.7582L8.02987 19.4907C8.09274 19.8072 8.26493 20.0916 8.51631 20.2939C8.76768 20.4963 9.08222 20.6038 9.40487 20.5976H12.6499C12.9725 20.6038 13.2871 20.4963 13.5384 20.2939C13.7898 20.0916 13.962 19.8072 14.0249 19.4907L14.3755 17.7582C14.689 17.6066 14.9922 17.4343 15.283 17.2426L16.9467 17.8063C17.0887 17.853 17.2373 17.8762 17.3867 17.8751C17.6279 17.8748 17.8647 17.8112 18.0734 17.6905C18.2822 17.5699 18.4556 17.3964 18.5761 17.1876L20.1436 14.4376C20.3041 14.1619 20.3637 13.839 20.3123 13.5242C20.2609 13.2094 20.1016 12.9223 19.8617 12.712L18.5624 11.5226ZM17.3317 16.5001L14.9736 15.7026C14.4216 16.1702 13.7907 16.5357 13.1105 16.782L12.6224 19.2501H9.37737L8.88924 16.8095C8.21441 16.5562 7.58692 16.1913 7.03299 15.7301L4.66799 16.5001L3.04549 13.7501L4.91549 12.1001C4.78837 11.3884 4.78837 10.6599 4.91549 9.94822L3.04549 8.2501L4.66799 5.5001L7.02612 6.2976C7.57814 5.83002 8.20903 5.46452 8.88924 5.21822L9.37737 2.7501H12.6224L13.1105 5.19072C13.7853 5.44401 14.4128 5.80888 14.9667 6.2701L17.3317 5.5001L18.9542 8.2501L17.0842 9.9001C17.2114 10.6118 17.2114 11.3403 17.0842 12.052L18.9542 13.7501L17.3317 16.5001Z" fill="#646464"/>
<path d="M11 15.125C10.1842 15.125 9.38663 14.8831 8.70827 14.4298C8.02992 13.9766 7.50121 13.3323 7.189 12.5786C6.87679 11.8248 6.7951 10.9954 6.95426 10.1953C7.11343 9.39508 7.50629 8.66008 8.08319 8.08319C8.66008 7.50629 9.39508 7.11343 10.1953 6.95426C10.9954 6.7951 11.8248 6.87679 12.5786 7.189C13.3323 7.50121 13.9766 8.02992 14.4298 8.70827C14.8831 9.38663 15.125 10.1842 15.125 11C15.1305 11.5432 15.0276 12.0821 14.8222 12.5851C14.6169 13.088 14.3133 13.545 13.9291 13.9291C13.545 14.3133 13.088 14.6169 12.5851 14.8222C12.0821 15.0276 11.5432 15.1305 11 15.125ZM11 8.25C10.6366 8.24153 10.2752 8.30688 9.93769 8.44208C9.60021 8.57729 9.29367 8.77954 9.03661 9.03661C8.77954 9.29367 8.57729 9.60021 8.44208 9.93769C8.30688 10.2752 8.24153 10.6366 8.25 11C8.24153 11.3635 8.30688 11.7248 8.44208 12.0623C8.57729 12.3998 8.77954 12.7063 9.03661 12.9634C9.29367 13.2205 9.60021 13.4227 9.93769 13.5579C10.2752 13.6931 10.6366 13.7585 11 13.75C11.3635 13.7585 11.7248 13.6931 12.0623 13.5579C12.3998 13.4227 12.7063 13.2205 12.9634 12.9634C13.2205 12.7063 13.4227 12.3998 13.5579 12.0623C13.6931 11.7248 13.7585 11.3635 13.75 11C13.7585 10.6366 13.6931 10.2752 13.5579 9.93769C13.4227 9.60021 13.2205 9.29367 12.9634 9.03661C12.7063 8.77954 12.3998 8.57729 12.0623 8.44208C11.7248 8.30688 11.3635 8.24153 11 8.25Z" fill="#646464"/>
</svg>
