<svg width="16" height="16" viewBox="0 0 16 16" fill="none" xmlns="http://www.w3.org/2000/svg">
<path d="M7.625 8.26058C7.97593 8.26058 8.26042 7.97609 8.26042 7.62516C8.26042 7.27423 7.97593 6.98975 7.625 6.98975C7.27407 6.98975 6.98959 7.27423 6.98959 7.62516C6.98959 7.97609 7.27407 8.26058 7.625 8.26058Z" stroke="#3D5684" stroke-width="1.27083" stroke-linecap="round" stroke-linejoin="round"/>
<path d="M12.0729 8.26058C12.4238 8.26058 12.7083 7.97609 12.7083 7.62516C12.7083 7.27423 12.4238 6.98975 12.0729 6.98975C11.722 6.98975 11.4375 7.27423 11.4375 7.62516C11.4375 7.97609 11.722 8.26058 12.0729 8.26058Z" stroke="#3D5684" stroke-width="1.27083" stroke-linecap="round" stroke-linejoin="round"/>
<path d="M3.17708 8.26058C3.52801 8.26058 3.8125 7.97609 3.8125 7.62516C3.8125 7.27423 3.52801 6.98975 3.17708 6.98975C2.82615 6.98975 2.54166 7.27423 2.54166 7.62516C2.54166 7.97609 2.82615 8.26058 3.17708 8.26058Z" stroke="#3D5684" stroke-width="1.27083" stroke-linecap="round" stroke-linejoin="round"/>
</svg>
